# xmcd CD database file
#
# Track frame offsets:
#	150
#	24818
#	48588
#	65425
#	101036
#	113470
#	128594
#	150728
#	170099
#	189154
#	209576
#	216335
#	233133
#
# Disc length: 3424 seconds
#
# Revision: 1
# Processed by: cddbd v1.5.2PL0 Copyright (c) Steve Scherf et al.
# Submitted via: CDex 1.51
#
DISCID=ae0d5e0d
DTITLE=Simin Tander - 'Where Water Travels Home'
DYEAR=2014
DGENRE=Jazz
TTITLE0=yau tar de grewan (pashto)
TTITLE1=above the ground
TTITLE2=behind the curtain
TTITLE3=where would I fly to if I could
TTITLE4=little song
TTITLE5=far
TTITLE6=de kor arman (pashto)
TTITLE7=larsha nengrahar ta (pashto)
TTITLE8=dark woods
TTITLE9=our silent storm
TTITLE10=Water
TTITLE11=la chancon des vieux amants (J. Brel)
TTITLE12=traveling on
EXTD=YEAR: 2014
EXTT0=
EXTT1=
EXTT2=
EXTT3=
EXTT4=
EXTT5=
EXTT6=
EXTT7=
EXTT8=
EXTT9=
EXTT10=
EXTT11=
EXTT12=
PLAYORDER=
